<?xml version="1.0" encoding="UTF-8"?>
<svg id="Capa_2" data-name="Capa 2" xmlns="http://www.w3.org/2000/svg" viewBox="0 0 642.18 599.1">
  <defs>
    <style>
      .cls-1 {
        stroke-width: 19px;
      }

      .cls-1, .cls-2 {
        fill: none;
        stroke: #886135;
        stroke-miterlimit: 10;
      }

      .cls-3 {
        fill: #886135;
      }

      .cls-2 {
        stroke-width: 4px;
      }

      .cls-4 {
        fill: #c1272d;
      }

      .cls-5 {
        fill: #e2ad3b;
      }
    </style>
  </defs>
  <g id="Prueba_1" data-name="Prueba 1">
    <g>
      <g>
        <path class="cls-5" d="M581.65,290.22c4.87,17.66,10.54,47.01,6.13,82.86-5.33,43.37-22.77,74.8-33.39,91.04-.02.03-.04.07-.06.1-5.17,9.23-13.47,21.69-26.32,33.95-7.67,7.32-15.3,12.99-22.14,17.35-1.98,1.26-4.27-1.09-2.94-3.02,7.37-10.71,17.21-30.09,14.41-54.89-3.4-30.08-23.11-47.79-27.84-51.82-.06-.04-.1-.08-.15-.14-6.05-6.32-20.66-19.81-43.74-25.31-34.42-8.21-61.91,7.5-67.88,11.1-4.02,2.62-28.8,19.29-34.15,52.08-4.92,30.12,10.05,52.33,13.3,56.9.05.08.09.15.14.23,3.48,6.68,9.48,16.1,19.43,24.85,9.81,8.62,20.13,13.66,28.75,16.64,3.81,1.32,3.52,6.78-.41,7.66-14.78,3.29-30.95,6.14-48.4,8.14-37.03,4.25-69.89,3.53-96.84,1.03-31.66-4.22-68.43-11.31-108.52-23.23-37.14-11.05-69.58-24-96.98-36.73-1.2-.56-1.61-2.06-.86-3.16,10.44-15.35,21.43-33.63,31.67-54.89,8.51-17.66,15.06-34.37,20.15-49.52,6.47-16.62,12.78-35.31,18.27-55.93,7.19-26.96,11.56-51.91,14.19-73.94,1.41-15.78,5.67-40.41,19.54-66.95,14.91-28.53,33.66-45.39,38.9-49.93,14.4-12.49,27.35-19.25,30.17-20.7,37.79-19.37,76.99-15.12,95.47-11.78.03.01.07.01.11.02,20.82,2.48,46.91,7.53,75.71,17.93,22.11,7.99,40.81,17.32,55.98,26.16,1.19.69,2.71.11,3.13-1.2,12.42-38.51,24.84-77.02,37.27-115.53.43-1.35,2.04-1.92,3.23-1.13l72.18,47.71c1.09.72,1.29,2.25.41,3.23l-78.39,87.1c-.91,1.01-.67,2.58.49,3.28,15.51,9.24,38.2,25.48,58.54,51.99,16.78,21.86,26.11,43.09,31.39,58.3.02.05.04.1.05.15h0Z"/>
        <path class="cls-2" d="M491.18,176.5c-.91,1.01-.67,2.58.49,3.28,15.51,9.24,38.2,25.48,58.54,51.99,16.78,21.86,26.11,43.09,31.39,58.3.02.05.04.1.05.15,4.87,17.66,10.54,47.01,6.13,82.86-5.33,43.37-22.77,74.8-33.39,91.04-.02.03-.04.07-.06.1-5.17,9.23-13.47,21.69-26.32,33.95-7.67,7.32-15.3,12.99-22.14,17.35-1.98,1.26-4.27-1.09-2.94-3.02,7.37-10.71,17.21-30.09,14.41-54.89-3.4-30.08-23.11-47.79-27.84-51.82-.06-.04-.1-.08-.15-.14-6.05-6.32-20.66-19.81-43.74-25.31-34.42-8.21-61.91,7.5-67.88,11.1-4.02,2.62-28.8,19.29-34.15,52.08-4.92,30.12,10.05,52.33,13.3,56.9.05.08.09.15.14.23,3.48,6.68,9.48,16.1,19.43,24.85,9.81,8.62,20.13,13.66,28.75,16.64,3.81,1.32,3.52,6.78-.41,7.66-14.78,3.29-30.95,6.14-48.4,8.14-37.03,4.25-69.89,3.53-96.84,1.03-31.66-4.22-68.43-11.31-108.52-23.23-37.14-11.05-69.58-24-96.98-36.73-1.2-.56-1.61-2.06-.86-3.16,10.44-15.35,21.43-33.63,31.67-54.89,8.51-17.66,15.06-34.37,20.15-49.52,6.47-16.62,12.78-35.31,18.27-55.93,7.19-26.96,11.56-51.91,14.19-73.94,1.41-15.78,5.67-40.41,19.54-66.95,14.91-28.53,33.66-45.39,38.9-49.93,14.4-12.49,27.35-19.25,30.17-20.7,37.79-19.37,76.99-15.12,95.47-11.78.03.01.07.01.11.02,20.82,2.48,46.91,7.53,75.71,17.93,22.11,7.99,40.81,17.32,55.98,26.16,1.19.69,2.71.11,3.13-1.2,12.42-38.51,24.84-77.02,37.27-115.53.43-1.35,2.04-1.92,3.23-1.13l72.18,47.71c1.09.72,1.29,2.25.41,3.23l-78.39,87.1h0Z"/>
      </g>
      <g>
        <g>
          <path class="cls-5" d="M588.93,361.68c.11,1.91.25,3.82.41,5.72-.11.96-.27,1.86-.34,2.66-.22,2.08-.28,4.17-.39,6.26-3.57,4.4-2.51,11.01-3.62,16.29-1.16,5.59-2.79,11.04-4.54,16.46l-183.79-177.64c-3.68-3.55-9.54-3.54-13.2.06l-207.14,203.43-8.52,7.66-14.39-15.07,32.73-69.42,37.33-30.11c.66,0,70.06-76.61,70.06-76.61l17.02-11.79,5.25-15.71,56.96-40.61c1.53-4.65,3.05-9.3,4.57-13.94,4.4-2.02,8.8-4.02,13.22-6.04,4.32,1.74,8.64,3.46,12.98,5.2,2.4,4.93,4.81,9.85,7.22,14.78l56.96,40.61,5.25,15.71,17.02,11.79,1.97-36.68h65.48l-1.32,75.97,5.25,8.5-1.32,28.82,28.67,23.13c-.03,2.38,0,4.76.08,7.13-.33,1.05-.33,2.22.14,3.45h0Z"/>
          <path class="cls-3" d="M250.39,383.74l-37.48,37.63-23.07,23.16-.02.02-4.35,2.6-9.16-12.23,207.14-203.43c3.66-3.6,9.52-3.62,13.2-.06l183.79,177.64c-1.47,4.53-3.01,9.02-4.46,13.55-.41,1.3-.83,2.6-1.25,3.88l-5.14-5.12-38.71-38.67-29.19-29.16-40.14-40.11-20.55-20.52-30.58-30.55-19.62-19.61-18.35,18.43-31.6,31.73-22.75,22.85-38.62,38.78-29.08,29.19h-.01Z"/>
          <path class="cls-5" d="M574.73,426.5l-.89,2.72c-.7.56-1.25,1.36-1.58,2.43-1.24,4.04-2.72,7.99-4.38,11.84l-1.16-.49,2.88-21.63,5.14,5.12h-.01Z"/>
          <path class="cls-5" d="M569.59,421.38l-2.88,21.63,1.16.49c-1.14,2.62-2.36,5.2-3.66,7.75-.61.25-1.16.64-1.63,1.22-.34.42-.7.86-1.03,1.32.09-.34-.05-.45-.2.28-.02.02-.03.05-.05.06-.17.23-.33.44-.44.67l-.02.02c-.44.52-.78,1.19-1.14,1.74-.89,1.27-1.74,2.54-2.52,3.88-2.98,5.14-5.54,10.45-8.5,15.58-2.46,3.35-4.98,6.62-7.56,9.85-1.52,1.89-3.05,3.79-4.6,5.68-1.94-.55-4.17-.05-5.54,2.15-1.53,2.47-3.02,4.98-4.54,7.49-.7.06-1.43.27-2.16.7-6.53,3.87-11.98,8.97-17.38,14.17-1.06.33-2.13.89-3.15,1.58l-.02-.02.66-57.52c.23-20.06-5.09-39.92-16.04-56.74-4.34-6.67-9.83-13.39-16.79-19.62h58.3l1.03-1.03,38.71,38.67h0Z"/>
          <path class="cls-4" d="M561.34,454.06c.06-.08.13-.16.19-.25-.05.14-.09.33-.23.52.02-.09.03-.19.05-.27h0Z"/>
          <path class="cls-3" d="M501.69,353.55l29.19,29.16-1.03,1.03h-58.32c-16.74-15.02-41.92-27.2-79.77-28.99-2.69-.13-5.32-.19-7.91-.19v-.02h116.84l1-1h0Z"/>
          <path class="cls-3" d="M488.33,403.37c10.95,16.82,16.27,36.68,16.04,56.74l-.66,57.52.02.02c-.99.64-1.93,1.41-2.79,2.16-7.05,3.15-14.55,5.78-21.72,8.58-1.79.7-3.57,1.39-5.37,2.05v-73.38c0-21.03-9.77-41.03-26.76-53.4-13-9.47-31.51-17.87-57.16-19.64-28.56-1.99-48.27,7.72-61.37,19.18-14.53,12.7-22.57,31.29-22.33,50.58l1.27,106.69v.02c-1.13.06-2.26.11-3.38.14-8.38.25-16.77.08-25.15-.33l-1.71-98.94c-.34-19.76,4.2-39.4,13.86-56.64,3.95-7.03,8.96-14.14,15.35-20.73,15.86-16.37,40.18-29.41,77.39-29.41,2.58,0,5.21.06,7.91.19,37.85,1.79,63.03,13.97,79.77,28.99h.02c6.95,6.23,12.45,12.95,16.79,19.62h-.02Z"/>
          <polygon class="cls-5" points="461.55 313.45 501.69 353.55 500.69 354.55 432.03 354.55 461.55 313.45"/>
          <path class="cls-5" d="M473.85,457.05v73.38c-12.75,4.81-25.84,9-39.01,12.34-7.34,1.85-14.77,3.4-22.25,4.49-3.88.56-7.66.91-11.39,2.16-3.6,1.19-7.06,2.83-10.76,3.73-7.22,1.75-15,1.63-22.36,2.87-7.8,1.32-15.74,1.74-23.65,1.77-1.75.02-3.04.75-3.84,1.83-10.84-2-22.16.17-33.11.86v-.02l-1.27-106.69c-.23-19.29,7.8-37.88,22.33-50.58,13.11-11.46,32.81-21.17,61.37-19.18,25.65,1.77,44.16,10.16,57.16,19.64,16.99,12.37,26.76,32.37,26.76,53.4h.02ZM432.33,504.19v-30.87h-34.55v30.87h34.55ZM397.47,463.61h34.56c0-8.52-3.46-16.24-9.04-21.81s-13.3-9.04-21.81-9.04h-3.71v30.85ZM386.34,504.19v-30.87h-34.56v30.87h34.56ZM386.04,463.61v-30.85h-3.71c-17.04,0-30.85,13.81-30.85,30.85h34.56ZM338.82,532.6c0-6.72-5.43-12.15-12.15-12.15s-12.17,5.43-12.17,12.15,5.45,12.17,12.17,12.17,12.15-5.45,12.15-12.17Z"/>
          <polygon class="cls-3" points="461.55 313.45 432.03 354.55 410.42 354.55 410.42 333.98 441.01 292.93 461.55 313.45"/>
          <polygon class="cls-5" points="441.01 292.93 410.42 333.98 410.42 262.38 441.01 292.93"/>
          <rect class="cls-3" x="397.78" y="473.32" width="34.55" height="30.87"/>
          <path class="cls-3" d="M432.03,463.61h-34.56v-30.85h3.71c8.52,0,16.24,3.46,21.81,9.04s9.04,13.3,9.04,21.81Z"/>
          <polygon class="cls-3" points="410.42 333.98 410.42 354.55 383.85 354.55 372.45 354.55 372.45 333.98 372.45 261.2 390.8 242.77 410.42 262.38 410.42 333.98"/>
          <rect class="cls-3" x="351.77" y="473.32" width="34.56" height="30.87"/>
          <path class="cls-3" d="M386.04,432.76v30.85h-34.56c0-17.04,13.81-30.85,30.85-30.85h3.71Z"/>
          <path class="cls-3" d="M383.85,354.55v.02c-37.21,0-61.53,13.05-77.39,29.41l-.25-.23h-55.81l29.08-29.19h104.38-.01Z"/>
          <polygon class="cls-3" points="372.45 333.98 372.45 354.55 348.96 354.55 318.09 315.78 340.84 292.93 372.45 333.98"/>
          <polygon class="cls-5" points="372.45 261.2 372.45 333.98 340.84 292.93 372.45 261.2"/>
          <polygon class="cls-5" points="318.09 315.78 348.96 354.55 279.47 354.55 318.09 315.78"/>
          <path class="cls-5" d="M326.67,520.44c6.72,0,12.15,5.43,12.15,12.15s-5.43,12.17-12.15,12.17-12.17-5.45-12.17-12.17,5.45-12.15,12.17-12.15Z"/>
          <path class="cls-5" d="M306.2,383.74l.25.23c-6.39,6.59-11.4,13.7-15.35,20.73-9.66,17.24-14.2,36.88-13.86,56.64l1.71,98.94c-2.36-.11-4.73-.23-7.08-.38-.8-.91-2.02-1.47-3.63-1.39-6.8.34-13.73-.47-20.66-1.53-6.01-1.16-12.01-2.47-18.06-3.54l-16.62-132.08,37.48-37.63h55.82Z"/>
          <path class="cls-3" d="M212.91,421.38l16.62,132.08c-1.25-.22-2.51-.42-3.76-.63-2.87-.45-5.78-.64-8.69-.89-.96-.23-1.91-.49-2.87-.78-2.74-.85-5.58-1.75-8.46-2.27l-13.72-105.66-2.19,1.32,23.07-23.16h0Z"/>
        </g>
        <g>
          <polyline class="cls-2" points="205.76 548.88 192.04 443.22 189.85 444.54"/>
          <polyline class="cls-2" points="212.91 421.38 189.85 444.54 189.83 444.55 185.48 447.15 176.32 434.92"/>
          <polyline class="cls-2" points="410.42 262.38 390.8 242.77 372.45 261.2"/>
          <polyline class="cls-2" points="574.75 426.51 574.73 426.5 569.59 421.38"/>
          <path class="cls-2" d="M580.45,409.07l-183.79-177.64c-3.68-3.55-9.54-3.54-13.2.06l-207.14,203.43-8.52,7.66-14.39-15.07,32.73-69.42,37.33-30.11c.66,0,70.06-76.61,70.06-76.61l17.02-11.79,5.25-15.71,56.96-40.61c1.53-4.65,3.05-9.3,4.57-13.94,4.4-2.02,8.8-4.02,13.22-6.04,4.32,1.74,8.64,3.46,12.98,5.2,2.4,4.93,4.81,9.85,7.22,14.78l56.96,40.61,5.25,15.71,17.02,11.79,1.97-36.68h65.48l-1.32,75.97,5.25,8.5-1.32,28.82,28.67,23.13"/>
          <path class="cls-2" d="M473.85,530.43v-73.38c0-21.03-9.77-41.03-26.76-53.4-13-9.47-31.51-17.87-57.16-19.64-28.56-1.99-48.27,7.72-61.37,19.18-14.53,12.7-22.57,31.29-22.33,50.58l1.27,106.69"/>
          <rect class="cls-2" x="351.77" y="473.32" width="34.56" height="30.87"/>
          <rect class="cls-2" x="397.78" y="473.32" width="34.55" height="30.87"/>
          <path class="cls-2" d="M382.33,432.76h3.71v30.85h-34.56c0-17.04,13.81-30.85,30.85-30.85Z"/>
          <path class="cls-2" d="M432.03,463.61h-34.56v-30.85h3.71c8.52,0,16.24,3.46,21.81,9.04s9.04,13.3,9.04,21.81Z"/>
          <polyline class="cls-2" points="461.55 313.45 501.69 353.55 530.88 382.71 569.59 421.38 566.71 443"/>
          <polyline class="cls-2" points="372.45 354.55 383.85 354.55 410.42 354.55"/>
          <polyline class="cls-2" points="212.91 421.38 250.39 383.74 279.47 354.55"/>
          <path class="cls-2" d="M471.54,383.74h-.02c-16.74-15.02-41.92-27.2-79.77-28.99-2.69-.13-5.32-.19-7.91-.19-37.21,0-61.53,13.05-77.39,29.41-6.39,6.59-11.4,13.7-15.35,20.73-9.66,17.24-14.2,36.88-13.86,56.64l1.71,98.94"/>
          <polyline class="cls-2" points="441.01 292.93 461.55 313.45 432.03 354.55 410.42 354.55 410.42 333.98"/>
          <line class="cls-2" x1="318.09" y1="315.78" x2="340.84" y2="292.93"/>
          <polyline class="cls-2" points="372.45 333.98 372.45 354.55 348.96 354.55"/>
          <polygon class="cls-2" points="372.45 261.2 372.45 333.98 340.84 292.93 372.45 261.2"/>
          <polygon class="cls-2" points="441.01 292.93 410.42 333.98 410.42 262.38 441.01 292.93"/>
          <polygon class="cls-2" points="348.96 354.55 279.47 354.55 318.09 315.78 348.96 354.55"/>
          <polyline class="cls-2" points="249.14 383.74 250.39 383.74 306.2 383.74"/>
          <line class="cls-2" x1="529.85" y1="383.74" x2="471.54" y2="383.74"/>
          <line class="cls-2" x1="500.69" y1="354.55" x2="432.03" y2="354.55"/>
          <line class="cls-2" x1="279.47" y1="354.55" x2="277.22" y2="354.55"/>
          <path class="cls-2" d="M338.82,532.6c0,6.72-5.43,12.17-12.15,12.17s-12.17-5.45-12.17-12.17,5.45-12.15,12.17-12.15,12.15,5.43,12.15,12.15Z"/>
        </g>
      </g>
    </g>
    <path class="cls-1" d="M558.2,242.94c12.61,18.49,18.87,34.1,23.4,47.13.02.05.03.1.04.15,4.87,17.66,10.54,47.02,6.14,82.86h0c-5.33,43.37-22.78,74.8-33.39,91.04-.03.03-.05.07-.07.11-5.17,9.23-13.47,21.68-26.31,33.94-7.67,7.32-15.3,12.99-22.15,17.35-12.83,6.37-27.47,12.78-43.85,18.6-20.84,7.41-40.19,12.34-57.23,15.68-14.77,3.29-30.95,6.14-48.4,8.14-37.02,4.25-69.88,3.54-96.83,1.04-17.97-2.4-37.58-5.72-58.51-10.32-15.95-3.51-32.67-7.76-50.01-12.92-37.15-11.04-69.59-24-96.99-36.73-1.2-.56-1.6-2.06-.86-3.16,10.45-15.34,21.43-33.63,31.67-54.88,8.52-17.67,15.07-34.38,20.15-49.53,6.47-16.62,12.78-35.31,18.28-55.93,7.19-26.96,11.56-51.9,14.19-73.94,1.4-15.78,5.67-40.4,19.54-66.94,14.91-28.54,33.66-45.39,38.9-49.94,14.4-12.48,27.34-19.25,30.16-20.7,37.8-19.36,77-15.12,95.47-11.78.04,0,.07.02.11.02,20.82,2.48,46.92,7.53,75.72,17.93,22.11,7.99,40.81,17.33,55.97,26.16,1.19.69,2.71.12,3.13-1.19,12.43-38.51,24.85-77.03,37.27-115.54.44-1.35,2.05-1.91,3.23-1.13l72.18,47.71c1.1.73,1.29,2.26.42,3.23l-78.39,87.1c-.91,1.01-.68,2.59.49,3.28,11.85,7.06,24.88,15.13,40.87,31.83"/>
  </g>
</svg>