<svg width="24" height="24" viewBox="0 0 24 24" fill="none" xmlns="http://www.w3.org/2000/svg">
  <path d="M8.5 2C6.567 2 5 3.567 5 5.5S6.567 9 8.5 9H12V2H8.5z" fill="#CA9A35"/>
  <path d="M12 2h3.5C17.433 2 19 3.567 19 5.5S17.433 9 15.5 9H12V2z" fill="#CA9A35" opacity="0.8"/>
  <path d="M12 9H8.5C6.567 9 5 10.567 5 12.5S6.567 16 8.5 16H12V9z" fill="#CA9A35" opacity="0.6"/>
  <path d="M15.5 9a3.5 3.5 0 1 1 0 7A3.5 3.5 0 0 1 12 12.5 3.5 3.5 0 0 1 15.5 9z" fill="#CA9A35"/>
  <path d="M12 16H8.5C6.567 16 5 17.567 5 19.5S6.567 23 8.5 23 12 21.433 12 19.5V16z" fill="#CA9A35" opacity="0.7"/>
</svg>
