<svg xmlns="http://www.w3.org/2000/svg" viewBox="0 0 24 24" width="40" height="40" fill="#3d2e00">
  <path d="M12 15.5A3.5 3.5 0 0 1 8.5 12 3.5 3.5 0 0 1 12 8.5a3.5 3.5 0 0 1 3.5 3.5 3.5 3.5 0 0 1-3.5 3.5m7.43-2.92c.04-.34.07-.69.07-1.08s-.03-.73-.07-1.08l2.32-1.81c.21-.16.27-.46.13-.7l-2.2-3.81c-.13-.24-.42-.32-.65-.24l-2.74 1.1c-.57-.44-1.18-.8-1.86-1.08L14.07 2.1A.515.515 0 0 0 13.56 1.7h-3.11c-.26 0-.48.19-.51.44L9.6 4.53c-.68.28-1.29.64-1.86 1.08L5 4.51c-.24-.09-.52 0-.65.24L2.15 8.56c-.14.24-.08.54.13.7l2.32 1.81C4.56 11.27 4.53 11.62 4.53 12s.03.73.07 1.08L2.28 14.89c-.21.16-.27.46-.13.7l2.2 3.81c.13.24.42.32.65.24l2.74-1.1c.57.44 1.18.8 1.86 1.08l.34 2.43c.03.25.25.44.51.44h3.11c.26 0 .48-.19.51-.44l.34-2.43c.68-.28 1.29-.64 1.86-1.08l2.74 1.1c.24.09.52 0 .65-.24l2.2-3.81c.14-.24.08-.54-.13-.7l-2.32-1.81z"/>
</svg>
